# xmcd
#
# Track frame offsets:
#	182
#	10832
#	22370
#	37582
#	51245
#	64445
#	74870
#	92857
#	100045
#	123857
#	135157
#	149432
#
# Disc length: 2127 seconds
# Revision: 0
# Processed by: cddbd v1.5.2PL0 Copyright (c) Steve Scherf et al.
# Submitted via: dBpowerAMP V12.0
#
DISCID=aa084d0c
DTITLE=Earl Flores - Far West As You Can Get
DYEAR=1996
DGENRE=Country
TTITLE0=I'll Give You Mexico
TTITLE1=Just A Little Bit Of Love
TTITLE2=Prune Pickin' Time In Gilroy
TTITLE3=Linda
TTITLE4=First Class Lady
TTITLE5=Don't Let Sun Set
TTITLE6=Hardcore Construction Blues
TTITLE7=Bad Attitude
TTITLE8=Fat Man's Insurance
TTITLE9=Still Standing At Your Door
TTITLE10=Take Time For Jesus
TTITLE11=I'll Be Your Man
EXTD=
EXTT0=
EXTT1=
EXTT2=
EXTT3=
EXTT4=
EXTT5=
EXTT6=
EXTT7=
EXTT8=
EXTT9=
EXTT10=
EXTT11=
PLAYORDER=
